<svg id="Layer_1" height="512" viewBox="0 0 512 512" width="512" xmlns="http://www.w3.org/2000/svg" data-name="Layer 1"><path fill="#0056a3" d="m256 200.0165c34.62 0 62.6843 27.6308 62.6843 61.7148 0 34.0771-28.0645 61.708-62.6843 61.708s-62.6847-27.6309-62.6847-61.708c0-34.084 28.065-61.7148 62.6847-61.7148zm0-24.6778c-48.4676 0-87.7585 38.6778-87.7585 86.3926 0 47.708 39.2909 86.3926 87.7585 86.3926s87.7581-38.6846 87.7581-86.3926c0-47.7148-39.29-86.3926-87.7581-86.3926zm90.4681-20.7676a24.6876 24.6876 0 1 0 25.0742 24.6846 24.8828 24.8828 0 0 0 -25.0742-24.6846zm-151.7256-26.8652h122.515c39.8565 0 72.167 31.8076 72.167 71.0391v125.9658c0 39.2383-32.3105 71.0391-72.167 71.0391h-122.515c-39.8565 0-72.167-31.8008-72.167-71.0391v-125.9658c0-39.2315 32.31-71.0391 72.167-71.0391zm-11.5548-24.5684c-47.3748 0-85.78 37.81-85.78 84.4444v148.292c0 46.6416 38.4047 84.4443 85.78 84.4443h145.6251c47.3743 0 85.779-37.8027 85.779-84.4443v-148.292c0-46.6348-38.4047-84.4444-85.779-84.4444zm72.8123-89.2089c136.8563 0 247.8 110.94 247.8 247.8027 0 136.8555-110.9435 247.7959-247.8 247.7959s-247.8-110.9404-247.8-247.7959c0-136.8623 110.9435-247.8027 247.8-247.8027z" fill-rule="evenodd"/></svg>